<svg width="88" height="96" viewBox="0 0 88 96" fill="none" xmlns="http://www.w3.org/2000/svg">
<g filter="url(#filter5_d_2125_11421)">
<path fill-rule="evenodd" clip-rule="evenodd" d="M20.6451 18.2443C18.9654 18.2443 17.6037 19.606 17.6037 21.2857C17.6037 22.9654 18.9654 24.3271 20.6451 24.3271C22.3248 24.3271 23.6865 22.9654 23.6865 21.2857C23.6865 19.606 22.3248 18.2443 20.6451 18.2443ZM16.75 21.2857C16.75 19.1345 18.4939 17.3906 20.6451 17.3906C22.7963 17.3906 24.5402 19.1345 24.5402 21.2857C24.5402 23.4369 22.7963 25.1808 20.6451 25.1808C18.4939 25.1808 16.75 23.4369 16.75 21.2857Z" fill="#95F9FF"/>
</g>
<g filter="url(#filter6_d_2125_11421)">
<path fill-rule="evenodd" clip-rule="evenodd" d="M37.6217 18.2443C35.942 18.2443 34.5803 19.606 34.5803 21.2857C34.5803 22.9654 35.942 24.3271 37.6217 24.3271C39.3014 24.3271 40.663 22.9654 40.663 21.2857C40.663 19.606 39.3014 18.2443 37.6217 18.2443ZM33.7266 21.2857C33.7266 19.1345 35.4705 17.3906 37.6217 17.3906C39.7729 17.3906 41.5168 19.1345 41.5168 21.2857C41.5168 23.4369 39.7729 25.1808 37.6217 25.1808C35.4705 25.1808 33.7266 23.4369 33.7266 21.2857Z" fill="#95F9FF"/>
</g>
<defs>
<filter id="filter5_d_2125_11421" x="13.2284" y="13.869" width="14.8332" height="14.8335" filterUnits="userSpaceOnUse" color-interpolation-filters="sRGB">
<feFlood flood-opacity="0" result="BackgroundImageFix"/>
<feColorMatrix in="SourceAlpha" type="matrix" values="0 0 0 0 0 0 0 0 0 0 0 0 0 0 0 0 0 0 127 0" result="hardAlpha"/>
<feOffset/>
<feGaussianBlur stdDeviation="1.7608"/>
<feComposite in2="hardAlpha" operator="out"/>
<feColorMatrix type="matrix" values="0 0 0 0 0 0 0 0 0 0.88 0 0 0 0 1 0 0 0 0.45 0"/>
<feBlend mode="normal" in2="BackgroundImageFix" result="effect1_dropShadow_2125_11421"/>
<feBlend mode="normal" in="SourceGraphic" in2="effect1_dropShadow_2125_11421" result="shape"/>
</filter>
<filter id="filter6_d_2125_11421" x="30.205" y="13.869" width="14.8332" height="14.8335" filterUnits="userSpaceOnUse" color-interpolation-filters="sRGB">
<feFlood flood-opacity="0" result="BackgroundImageFix"/>
<feColorMatrix in="SourceAlpha" type="matrix" values="0 0 0 0 0 0 0 0 0 0 0 0 0 0 0 0 0 0 127 0" result="hardAlpha"/>
<feOffset/>
<feGaussianBlur stdDeviation="1.7608"/>
<feComposite in2="hardAlpha" operator="out"/>
<feColorMatrix type="matrix" values="0 0 0 0 0 0 0 0 0 0.88 0 0 0 0 1 0 0 0 0.45 0"/>
<feBlend mode="normal" in2="BackgroundImageFix" result="effect1_dropShadow_2125_11421"/>
<feBlend mode="normal" in="SourceGraphic" in2="effect1_dropShadow_2125_11421" result="shape"/>
</filter>
</defs>
</svg>
